<?xml version="1.0" encoding="UTF-8" standalone="no"?>
<svg width="204px" height="35px" viewBox="0 0 204 35" version="1.1" xmlns="http://www.w3.org/2000/svg" xmlns:xlink="http://www.w3.org/1999/xlink">
    <!-- Generator: Sketch 3.6.1 (26313) - http://www.bohemiancoding.com/sketch -->
    <title>Page 1</title>
    <desc>Created with Sketch.</desc>
    <defs>
        <path id="path-1" d="M0,57.5609756 L204.613099,57.5609756 L204.613099,0.66195122 L0,0.66195122 L0,57.5609756 Z"></path>
    </defs>
    <g id="-Page-1-Both-sizes" stroke="none" stroke-width="1" fill="none" fill-rule="evenodd">
        <g id="Page-1" transform="translate(0.000000, -1.000000)">
            <path d="M19.2265458,9.02469756 L19.2265458,7.88930732 L6.26534859,7.88930732 L6.26534859,16.9753073 L18.1048204,16.9753073 L18.1048204,15.8399171 L7.4000669,15.8399171 L7.4000669,9.02469756 L19.2265458,9.02469756 Z" id="Fill-1" fill="#FFFFFF"></path>
            <path d="M0.011693662,1.48478537 L0.011693662,35.3119317 L1.13630634,35.3119317 L1.13630634,2.61585854 L19.2268345,2.61585854 L19.2268345,1.48478537 L0.011693662,1.48478537 Z" id="Fill-2" fill="#FFFFFF"></path>
            <path d="M18.1071303,23.3841463 L18.1071303,22.2545122 L6.26621479,22.2545122 L6.26621479,35.3122195 L7.4009331,35.3122195 L7.4009331,23.3841463 L18.1071303,23.3841463 Z" id="Fill-3" fill="#FFFFFF"></path>
            <g id="Group-52" transform="translate(0.000000, 0.777073)">
                <path d="M56.3113345,0.663246341 L56.3113345,1.79719756 L64.5993979,1.79719756 C69.685419,1.79719756 73.8215106,5.92575854 73.8215106,11.0026366 C73.8215106,13.2762951 72.8946796,15.4780024 71.2157007,17.2005146 L70.8273556,17.5919293 L71.2157007,17.987661 C72.8946796,19.7130512 73.8215106,21.9133195 73.8215106,24.1841 C73.8215106,29.2667341 69.685419,33.4010512 64.5993979,33.4010512 L56.3113345,33.4010512 L56.3113345,34.5350024 L64.5993979,34.5350024 C70.3148556,34.5350024 74.9576725,29.8912707 74.9576725,24.1841 C74.9576725,21.7794902 74.0164049,19.4712951 72.350419,17.5919293 C74.0164049,15.7197585 74.9576725,13.4072463 74.9576725,11.0026366 C74.9576725,5.30266098 70.3148556,0.663246341 64.5993979,0.663246341 L56.3113345,0.663246341 L56.3113345,0.663246341 Z" id="Fill-4" fill="#FFFFFF"></path>
                <mask id="mask-2" fill="white">
                    <use xlink:href="#path-1"></use>
                </mask>
                <g id="Clip-7"></g>
                <path d="M49.3053873,34.5351463 L50.4458803,34.5351463 L50.4458803,0.706560976 L49.3053873,0.706560976 L49.3053873,34.5351463 Z" id="Fill-6" fill="#FFFFFF" mask="url(#mask-2)"></path>
                <path d="M56.3098908,20.2503829 L56.3113345,21.3814561 L64.15475,21.3641878 C65.7702077,21.3641878 67.0348556,22.6046268 67.0348556,24.1832366 C67.0348556,25.7733585 65.7427782,27.0670415 64.15475,27.0670415 L56.3113345,27.0670415 L56.3113345,28.1966756 L64.15475,28.1966756 C66.3722148,28.1966756 68.1710176,26.3978951 68.1710176,24.1832366 C68.1710176,21.967139 66.4111937,20.2331146 64.15475,20.2331146 C64.1518627,20.2331146 56.3098908,20.2503829 56.3098908,20.2503829" id="Fill-8" fill="#FFFFFF" mask="url(#mask-2)"></path>
                <path d="M56.3113345,7.05323415 L56.3113345,8.18862439 L64.1533063,8.18862439 C65.7702077,8.18862439 67.0348556,9.42474634 67.0348556,11.0062341 C67.0348556,12.4481366 65.9492218,13.6727463 64.5041162,13.8583805 L56.3113345,13.8526244 L56.3113345,14.9851366 L64.5820739,14.9851366 C66.6609472,14.7261122 68.1710176,13.0179902 68.1710176,11.0062341 C68.1710176,8.79301463 66.4083063,7.05323415 64.1533063,7.05323415 L56.3113345,7.05323415 Z" id="Fill-9" fill="#FFFFFF" mask="url(#mask-2)"></path>
                <path d="M79.7883099,34.5351463 L80.9244718,34.5351463 L80.9244718,0.706560976 L79.7883099,0.706560976 L79.7883099,34.5351463 Z" id="Fill-10" fill="#FFFFFF" mask="url(#mask-2)"></path>
                <path d="M93.1782746,17.4327732 C96.0078521,17.4327732 98.306162,15.1217 98.306162,12.2738707 C98.306162,9.43035854 96.0078521,7.11352927 93.1782746,7.11352927 L86.2429225,7.11352927 L86.2429225,8.24748049 L93.1782746,8.24748049 C95.3784155,8.24748049 97.1714437,10.0534561 97.1714437,12.2738707 C97.1714437,14.4957244 95.3784155,16.304578 93.1782746,16.304578 L86.2429225,16.304578 L86.2429225,34.535578 L87.3819718,34.535578 L87.3819718,17.4327732 L93.1782746,17.4327732 Z" id="Fill-11" fill="#FFFFFF" mask="url(#mask-2)"></path>
                <path d="M28.9148169,22.1376634 L35.7808732,22.1376634 L32.5311901,9.86854146 L31.3141831,9.86854146 L34.308338,21.0022732 L28.0442887,21.0022732 L24.370169,34.5334195 L25.5265423,34.5334195 L28.9148169,22.1376634 Z" id="Fill-12" fill="#FFFFFF" mask="url(#mask-2)"></path>
                <path d="M17.6403944,34.5351463 L18.8140915,34.5351463 L28.524162,0.706560976 L27.3504648,0.706560976 L17.6403944,34.5351463 Z" id="Fill-13" fill="#FFFFFF" mask="url(#mask-2)"></path>
                <path d="M35.3971479,0.708287805 L45.1259859,34.5354341 L46.3198944,34.5354341 L36.6069366,0.708287805 L35.3971479,0.708287805 Z" id="Fill-14" fill="#FFFFFF" mask="url(#mask-2)"></path>
                <path d="M36.0379894,26.436461 L38.3478486,34.5338512 L39.4984472,34.5338512 L37.2506655,26.436461 L36.0379894,26.436461 Z" id="Fill-15" fill="#FFFFFF" mask="url(#mask-2)"></path>
                <path d="M121.915377,14.096539 L121.915377,21.1434415 C121.915377,28.5241976 127.928229,34.5350024 135.322665,34.5350024 L135.322665,33.3996122 C128.554778,33.3996122 123.05587,27.9011 123.05587,21.1434415 L123.05587,14.096539 C123.05587,7.33600244 128.557665,1.83749024 135.329884,1.83749024 C142.096327,1.83749024 147.598123,7.33600244 147.598123,14.096539 L147.598123,24.1481244 C146.001433,22.9321488 134.743757,14.1987098 134.743757,14.1987098 L134.743757,15.5629049 L148.732842,26.4419293 L148.737173,14.096539 C148.737173,6.71146585 142.72432,0.706417073 135.329884,0.706417073 C127.931116,0.706417073 121.915377,6.71146585 121.915377,14.096539" id="Fill-16" fill="#FFFFFF" mask="url(#mask-2)"></path>
                <path d="M134.743468,26.8720537 C131.802729,26.5741756 129.466884,24.1580537 129.466884,21.1289073 L129.475546,14.1064683 C129.475546,10.8816146 132.101567,8.25683415 135.332482,8.25683415 C138.55618,8.25683415 141.186532,10.8816146 141.186532,14.1064683 L141.179313,16.0549073 L142.315475,16.0606634 L142.319806,14.1107854 C142.319806,10.257078 139.185616,7.12432195 135.332482,7.12432195 C131.473574,7.12432195 128.339384,10.257078 128.339384,14.1064683 L128.332165,21.1289073 C128.332165,24.9826146 131.462025,28.1196878 135.30794,28.1196878 L135.878187,28.1196878 L135.878187,24.0371756 L148.732553,34.5377366 L148.732553,32.9605659 L134.743468,21.7448098 L134.743468,26.8720537 Z" id="Fill-17" fill="#FFFFFF" mask="url(#mask-2)"></path>
                <path d="M109.812148,34.5351463 L110.949754,34.5351463 L110.949754,0.706560976 L109.812148,0.706560976 L109.812148,34.5351463 Z" id="Fill-18" fill="#FFFFFF" mask="url(#mask-2)"></path>
                <path d="M116.269648,34.5351463 L117.40581,34.5351463 L117.40581,0.706560976 L116.269648,0.706560976 L116.269648,34.5351463 Z" id="Fill-19" fill="#FFFFFF" mask="url(#mask-2)"></path>
                <path d="M99.0248169,22.4313683 C102.775451,20.4340024 105.209465,16.5471976 105.209465,12.2732951 C105.209465,5.8998561 100.010838,0.706417073 93.6240775,0.706417073 L86.2455211,0.706417073 L86.2455211,1.83605122 L93.6240775,1.83605122 C99.3871761,1.83605122 104.073303,6.52007561 104.073303,12.2732951 C104.073303,16.3068805 101.712915,20.0138073 98.0532324,21.7262463 L97.5306268,21.9708805 L103.721049,34.5350024 L104.985697,34.5350024 L99.0248169,22.4313683 Z" id="Fill-20" fill="#FFFFFF" mask="url(#mask-2)"></path>
                <path d="M91.1015669,23.524739 L96.5225176,34.5347146 L97.7857218,34.5347146 L92.3676585,23.524739 L91.1015669,23.524739 Z" id="Fill-21" fill="#FFFFFF" mask="url(#mask-2)"></path>
                <path d="M203.899641,8.24762439 L203.899641,7.11223415 L190.98031,7.11223415 L190.98031,14.9836976 L203.899641,14.9836976 L203.899641,13.8468683 L192.120803,13.8468683 L192.120803,8.24762439 L203.899641,8.24762439 Z" id="Fill-22" fill="#FFFFFF" mask="url(#mask-2)"></path>
                <path d="M192.121958,26.9858805 L192.121958,21.3837585 L203.899352,21.3837585 L203.899352,20.2526854 L190.980021,20.2526854 L190.980021,28.1169537 L203.899352,28.1169537 L203.899352,26.9858805 L192.121958,26.9858805 Z" id="Fill-23" fill="#FFFFFF" mask="url(#mask-2)"></path>
                <path d="M203.899641,1.83806585 L203.899641,0.708431707 L184.713373,0.708431707 L184.713373,34.5413341 L203.899641,34.5413341 L203.899641,33.4059439 L185.852423,33.4059439 L185.852423,1.83806585 L203.899641,1.83806585 Z" id="Fill-24" fill="#FFFFFF" mask="url(#mask-2)"></path>
                <path d="M178.532623,0.708287805 L178.532623,21.1453122 C178.532623,27.9000927 173.025053,33.4014829 166.254278,33.4014829 C159.490722,33.4014829 153.981708,27.9000927 153.981708,21.1453122 L153.981708,0.708287805 L152.846989,0.708287805 L152.846989,21.1453122 C152.846989,28.5275073 158.859842,34.5354341 166.254278,34.5354341 C173.654489,34.5354341 179.668785,28.5275073 179.668785,21.1453122 L179.668785,0.708287805 L178.532623,0.708287805 Z" id="Fill-25" fill="#FFFFFF" mask="url(#mask-2)"></path>
                <path d="M172.110926,0.708287805 L172.110926,21.1294829 C172.110926,24.3572146 169.47913,26.9834341 166.252546,26.9834341 C163.025961,26.9834341 160.402827,24.3572146 160.402827,21.1294829 L160.402827,0.708287805 L159.268109,0.708287805 L159.268109,21.1294829 C159.268109,24.9788732 162.400856,28.1159463 166.252546,28.1159463 C170.111454,28.1159463 173.245644,24.9788732 173.245644,21.1294829 L173.245644,0.708287805 L172.110926,0.708287805 Z" id="Fill-26" fill="#FFFFFF" mask="url(#mask-2)"></path>
            </g>
        </g>
    </g>
</svg>