<?xml version="1.0" encoding="UTF-8" standalone="no"?>
<svg width="159px" height="180px" viewBox="0 0 159 180" version="1.1" xmlns="http://www.w3.org/2000/svg" xmlns:xlink="http://www.w3.org/1999/xlink">
    <!-- Generator: Sketch 3.6.1 (26313) - http://www.bohemiancoding.com/sketch -->
    <title>Page 1 Copy</title>
    <desc>Created with Sketch.</desc>
    <defs></defs>
    <g id="-" stroke="none" stroke-width="1" fill="none" fill-rule="evenodd">
        <path d="M27.7101454,0 L0,23.2514049 L0,156.479088 L129.727723,179.353663 L131.203432,179.614103 L158.913578,156.362339 L158.913578,23.1346557 L29.1854956,0.260440449 L27.7101454,0 Z M133.49926,44.4598789 L10.5569985,22.7822528 L29.545083,6.84904498 L152.487344,28.5270303 L152.487344,151.034625 L35.9716756,130.490005 L54.9597601,114.556797 L133.49926,128.405404 L133.49926,44.4598789 Z M6.42623338,151.086713 L6.42623338,28.5791184 L122.941902,49.1240979 L103.953458,65.0573058 L25.4143179,51.2086992 L25.4143179,135.153865 L148.356579,156.831491 L129.368135,172.765058 L6.42623338,151.086713 Z M108.084583,117.398652 L108.084583,69.9798099 L127.073026,54.0469613 L127.073026,120.746658 L108.084583,117.398652 Z M31.8405513,58.8670853 L50.828995,62.2154514 L50.828995,109.634293 L31.8405513,125.567142 L31.8405513,58.8670853 Z M57.2552284,108.436267 L57.2552284,63.3484572 L101.65799,71.177836 L101.65799,116.265646 L57.2552284,108.436267 Z" id="Page-1-Copy" fill="#FFFFFF"></path>
    </g>
</svg>